<svg width="16" height="18" viewBox="0 0 16 18" fill="none" xmlns="http://www.w3.org/2000/svg">
<g id="8541621_bell_alert_icon 2" clip-path="url(#clip0_4_3478)">
<path id="Vector" d="M7.99987 17.9286C9.1726 17.9286 10.1239 16.9773 10.1239 15.8036H5.87587C5.87587 16.9773 6.82714 17.9286 7.99987 17.9286ZM15.1515 12.9577C14.51 12.2684 13.3097 11.2315 13.3097 7.83482C13.3097 5.25494 11.5008 3.18971 9.06171 2.68303V1.99107C9.06171 1.40437 8.58624 0.928574 7.99987 0.928574C7.4135 0.928574 6.93803 1.40437 6.93803 1.99107V2.68303C4.49893 3.18971 2.69003 5.25494 2.69003 7.83482C2.69003 11.2315 1.48973 12.2684 0.848249 12.9577C0.649031 13.1719 0.56071 13.4279 0.56237 13.6786C0.566023 14.2231 0.993347 14.7411 1.62819 14.7411H14.3716C15.0064 14.7411 15.4341 14.2231 15.4374 13.6786C15.439 13.4279 15.3507 13.1716 15.1515 12.9577Z" fill="#9EA9AD"/>
</g>
<defs>
<clipPath id="clip0_4_3478">
<rect width="14.875" height="17" fill="white" transform="translate(0.5625 0.928574)"/>
</clipPath>
</defs>
</svg>
