<svg width="18" height="19" viewBox="0 0 18 19" fill="none" xmlns="http://www.w3.org/2000/svg">
<g id="Group">
<g id="Icon-Calendar">
<path id="Fill-133" d="M16.2 18.5H1.8C0.818182 18.5 0 17.6818 0 16.7V3.48636C0 2.50454 0.654546 1.68636 1.51364 1.68636H2.41364V2.87272H1.51364C1.39091 2.87272 1.22727 3.11818 1.22727 3.48636V16.7C1.22727 17.0273 1.51364 17.3136 1.84091 17.3136H16.2409C16.5682 17.3136 16.8545 17.0273 16.8545 16.7V3.48636C16.8545 3.11818 16.65 2.87272 16.5682 2.87272H15.6682V1.68636H16.5682C17.3864 1.68636 18.0818 2.50454 18.0818 3.48636V16.7C18 17.6818 17.1818 18.5 16.2 18.5Z" fill="#888A8E"/>
<path id="Fill-134" d="M4.21364 4.1C3.88637 4.1 3.60001 3.81363 3.60001 3.48636V1.07273C3.60001 0.745455 3.88637 0.459091 4.21364 0.459091C4.54092 0.459091 4.82728 0.745455 4.82728 1.07273V3.48636C4.78637 3.81363 4.54092 4.1 4.21364 4.1Z" fill="#888A8E"/>
<path id="Fill-135" d="M13.7864 4.1C13.4591 4.1 13.1727 3.81363 13.1727 3.48636V1.07273C13.1727 0.745455 13.4591 0.459091 13.7864 0.459091C14.1136 0.459091 14.4 0.745455 14.4 1.07273V3.48636C14.4 3.81363 14.1136 4.1 13.7864 4.1Z" fill="#888A8E"/>
<path id="Fill-136" d="M6.01364 1.68636H11.9864V2.91364H6.01364V1.68636Z" fill="#888A8E"/>
<path id="Fill-137" d="M1.18637 5.28637H16.8136V6.51364H1.18637V5.28637Z" fill="#888A8E"/>
<path id="Fill-138" d="M14.4 7.7H15.5864V8.88637H14.4V7.7Z" fill="#888A8E"/>
<path id="Fill-139" d="M11.9864 7.7H13.2136V8.88637H11.9864V7.7Z" fill="#888A8E"/>
<path id="Fill-140" d="M9.61363 7.7H10.8V8.88637H9.61363V7.7Z" fill="#888A8E"/>
<path id="Fill-141" d="M7.20001 7.7H8.38638V8.88637H7.20001V7.7Z" fill="#888A8E"/>
<path id="Fill-142" d="M4.78638 7.7H6.01365V8.88637H4.78638V7.7Z" fill="#888A8E"/>
<path id="Fill-143" d="M14.4 10.1136H15.5864V11.3H14.4V10.1136Z" fill="#888A8E"/>
<path id="Fill-144" d="M11.9864 10.1136H13.2136V11.3H11.9864V10.1136Z" fill="#888A8E"/>
<path id="Fill-145" d="M9.61363 10.1136H10.8V11.3H9.61363V10.1136Z" fill="#888A8E"/>
<path id="Fill-146" d="M7.20001 10.1136H8.38638V11.3H7.20001V10.1136Z" fill="#888A8E"/>
<path id="Fill-147" d="M4.78638 10.1136H6.01365V11.3H4.78638V10.1136Z" fill="#888A8E"/>
<path id="Fill-148" d="M2.41364 10.1136H3.6V11.3H2.41364V10.1136Z" fill="#888A8E"/>
<path id="Fill-149" d="M14.4 12.4864H15.5864V13.7136H14.4V12.4864Z" fill="#888A8E"/>
<path id="Fill-150" d="M11.9864 12.4864H13.2136V13.7136H11.9864V12.4864Z" fill="#888A8E"/>
<path id="Fill-151" d="M9.61363 12.4864H10.8V13.7136H9.61363V12.4864Z" fill="#888A8E"/>
<path id="Fill-152" d="M7.20001 12.4864H8.38638V13.7136H7.20001V12.4864Z" fill="#888A8E"/>
<path id="Fill-153" d="M4.78638 12.4864H6.01365V13.7136H4.78638V12.4864Z" fill="#888A8E"/>
<path id="Fill-154" d="M2.41364 12.4864H3.6V13.7136H2.41364V12.4864Z" fill="#888A8E"/>
<path id="Fill-155" d="M11.9864 14.9H13.2136V16.0864H11.9864V14.9Z" fill="#888A8E"/>
<path id="Fill-156" d="M9.61363 14.9H10.8V16.0864H9.61363V14.9Z" fill="#888A8E"/>
<path id="Fill-157" d="M7.20001 14.9H8.38638V16.0864H7.20001V14.9Z" fill="#888A8E"/>
<path id="Fill-158" d="M4.78638 14.9H6.01365V16.0864H4.78638V14.9Z" fill="#888A8E"/>
<path id="Fill-159" d="M2.41364 14.9H3.6V16.0864H2.41364V14.9Z" fill="#888A8E"/>
</g>
</g>
</svg>
