<svg width="25" height="25" viewBox="0 0 25 25" fill="none" xmlns="http://www.w3.org/2000/svg">
<g id="3709751_complaint_dissatisfaction_expression_feedback_report_icon 1">
<g id="Group">
<path id="Vector" d="M12.5 6.64062C9.26914 6.64062 6.64062 9.26914 6.64062 12.5C6.64062 15.7309 9.26914 18.3594 12.5 18.3594C15.7309 18.3594 18.3594 15.7309 18.3594 12.5C18.3594 9.26914 15.7309 6.64062 12.5 6.64062ZM12.5 17.5781C11.0645 17.5781 9.76875 16.9766 8.84414 16.0156H16.1559C15.2313 16.9766 13.9355 17.5781 12.5 17.5781ZM11.9152 11.9457C11.5477 11.7316 11.3281 11.3547 11.3281 10.9375V10.1562C11.3281 9.82891 11.4668 9.51367 11.7086 9.29219C11.9531 9.06758 12.2703 8.95977 12.6062 8.98906C13.2035 9.04102 13.6719 9.58906 13.6719 10.2375V10.9375C13.6719 11.3547 13.4523 11.7316 13.0848 11.9457L12.8906 12.0586V13.1852L14.7812 13.7254C15.2781 13.8672 15.625 14.3273 15.625 14.8438V15.2344H9.375V14.8438C9.375 14.3273 9.72187 13.8672 10.2188 13.7254L12.1094 13.1852V12.0586L11.9152 11.9457ZM16.4062 15.7402V14.8438C16.4062 13.9805 15.8266 13.2113 14.9961 12.9742L13.6719 12.5961V12.4922C14.1586 12.1254 14.4531 11.5484 14.4531 10.9379V10.2379C14.4531 9.18789 13.6715 8.29805 12.6734 8.21133C12.1262 8.1625 11.5824 8.34805 11.1805 8.7168C10.7777 9.08555 10.5469 9.61055 10.5469 10.1562V10.9375C10.5469 11.548 10.8414 12.1254 11.3281 12.4918V12.5957L10.0039 12.9742C9.17344 13.2113 8.59375 13.9805 8.59375 14.8438V15.7402C7.8625 14.8602 7.42188 13.7309 7.42188 12.5C7.42188 9.7 9.7 7.42188 12.5 7.42188C15.3 7.42188 17.5781 9.7 17.5781 12.5C17.5781 13.7309 17.1375 14.8602 16.4062 15.7402Z" fill="#3654F7"/>
<path id="Vector_2" d="M21.0938 2.73438H17.5063C17.3445 2.28086 16.9148 1.95312 16.4062 1.95312H15.0848C14.5785 0.987891 13.5934 0.390625 12.5 0.390625C11.4066 0.390625 10.4215 0.9875 9.91523 1.95312H8.59375C8.08516 1.95312 7.65547 2.28086 7.49375 2.73438H3.90625C3.26016 2.73438 2.73438 3.26016 2.73438 3.90625V23.4375C2.73438 24.0836 3.26016 24.6094 3.90625 24.6094H21.0938C21.7398 24.6094 22.2656 24.0836 22.2656 23.4375V3.90625C22.2656 3.26016 21.7398 2.73438 21.0938 2.73438ZM19.9219 19.1406H16.7969V22.2656H5.07812V5.07812H7.42188V5.85938H17.5781V5.07812H19.9219V19.1406ZM19.3695 19.9219L17.5781 21.7133V19.9219H19.3695ZM8.20312 3.125C8.20312 2.90977 8.37852 2.73438 8.59375 2.73438H10.3977L10.5879 2.35352C10.9527 1.62461 11.6852 1.17188 12.5 1.17188C13.3148 1.17188 14.0473 1.62461 14.4121 2.35313L14.6023 2.73438H16.4062C16.6215 2.73438 16.7969 2.90977 16.7969 3.125V5.07812H8.20312V3.125ZM21.4844 23.4375C21.4844 23.6527 21.309 23.8281 21.0938 23.8281H3.90625C3.69102 23.8281 3.51562 23.6527 3.51562 23.4375V3.90625C3.51562 3.69102 3.69102 3.51562 3.90625 3.51562H7.42188V4.29688H4.29688V23.0469H17.3492L20.7031 19.693V4.29688H17.5781V3.51562H21.0938C21.309 3.51562 21.4844 3.69102 21.4844 3.90625V23.4375Z" fill="#3654F7"/>
<path id="Vector_3" d="M16.0156 19.1406H15.2344V19.9219H16.0156V19.1406Z" fill="#3654F7"/>
<path id="Vector_4" d="M14.4531 19.1406H5.85938V19.9219H14.4531V19.1406Z" fill="#3654F7"/>
<path id="Vector_5" d="M14.4531 20.7031H5.85938V21.4844H14.4531V20.7031Z" fill="#3654F7"/>
<path id="Vector_6" d="M16.0156 20.7031H15.2344V21.4844H16.0156V20.7031Z" fill="#3654F7"/>
<path id="Vector_7" d="M12.5 1.95312C11.8539 1.95312 11.3281 2.47891 11.3281 3.125C11.3281 3.77109 11.8539 4.29688 12.5 4.29688C13.1461 4.29688 13.6719 3.77109 13.6719 3.125C13.6719 2.47891 13.1461 1.95312 12.5 1.95312ZM12.5 3.51562C12.2848 3.51562 12.1094 3.34023 12.1094 3.125C12.1094 2.90977 12.2848 2.73438 12.5 2.73438C12.7152 2.73438 12.8906 2.90977 12.8906 3.125C12.8906 3.34023 12.7152 3.51562 12.5 3.51562Z" fill="#3654F7"/>
<path id="Vector_8" d="M10.1562 3.51562H9.375V4.29688H10.1562V3.51562Z" fill="#3654F7"/>
<path id="Vector_9" d="M15.625 3.51562H14.8438V4.29688H15.625V3.51562Z" fill="#3654F7"/>
</g>
</g>
</svg>
