<svg width="20" height="20" viewBox="0 0 20 20" fill="none" xmlns="http://www.w3.org/2000/svg">
<g id="2530791_clock_flow_general_hourglass_office_icon 1">
<g id="Group">
<path id="Vector" d="M6.70725 3.9C6.70725 3.9 8.55099 5.63231 10.2596 4.69692C11.9681 3.76154 13.8615 3.90593 13.8615 3.90593C13.8615 3.90593 14.0382 8.31868 10.4209 8.31868C5.93142 8.31868 6.70725 3.9 6.70725 3.9Z" fill="#CA7C52" fill-opacity="0.5"/>
<path id="Vector_2" d="M6.3736 15.8587V18.2418H13.8461V15.9251C13.8461 15.9251 12.998 14.5035 10.1413 14.502C7.60964 14.5007 6.3736 15.8587 6.3736 15.8587Z" fill="#CA7C52" fill-opacity="0.5"/>
<path id="Vector_3" d="M10.2274 14.1765C10.5959 14.1765 10.8947 13.8777 10.8947 13.5092C10.8947 13.1407 10.5959 12.842 10.2274 12.842C9.85892 12.842 9.56018 13.1407 9.56018 13.5092C9.56018 13.8777 9.85892 14.1765 10.2274 14.1765Z" fill="#CA7C52" fill-opacity="0.5"/>
<path id="Vector_4" d="M11.0795 11.3002C11.0795 11.7705 10.6984 12.1516 10.2281 12.1516C9.75776 12.1516 9.37689 11.7705 9.37689 11.3002C9.37689 10.8299 8.4571 10.449 10.2281 10.449C11.9797 10.449 11.0795 10.8299 11.0795 11.3002Z" fill="#CA7C52" fill-opacity="0.5"/>
<g id="Group_2">
<g id="Group_3">
<path id="Vector_5" d="M15.1578 19.9068C14.8527 19.9068 14.6055 19.6596 14.6055 19.3545V14.4C14.6055 12.4158 12.6409 10.8015 10.2259 10.8015H10.0851C7.66989 10.8015 5.70484 12.4158 5.70484 14.4V19.3547C5.70484 19.6598 5.45758 19.907 5.15253 19.907C4.84747 19.907 4.60022 19.6598 4.60022 19.3547V14.4C4.60022 11.8068 7.06066 9.69714 10.0848 9.69714H10.2257C13.2497 9.69714 15.7097 11.807 15.7097 14.4V19.3547C15.7099 19.6596 15.4626 19.9068 15.1578 19.9068Z" fill="#CA7C52"/>
<path id="Vector_6" d="M10.2259 10.3985H10.085C7.06084 10.3985 4.6004 8.28857 4.6004 5.69538V0.739561C4.6004 0.434506 4.84766 0.187253 5.15271 0.187253C5.45777 0.187253 5.70502 0.434506 5.70502 0.739561V5.69517C5.70502 7.67934 7.66985 9.29385 10.0852 9.29385H10.2261C12.6408 9.29385 14.6057 7.67934 14.6057 5.69517V0.739561C14.6057 0.434506 14.8529 0.187253 15.158 0.187253C15.463 0.187253 15.7103 0.434506 15.7103 0.739561V5.69517C15.7099 8.28857 13.2499 10.3985 10.2259 10.3985Z" fill="#CA7C52"/>
<path id="Vector_7" d="M18.2538 1.29187H2.05536C1.7503 1.29187 1.50305 1.04462 1.50305 0.739561C1.50305 0.434506 1.7503 0.187253 2.05536 0.187253H18.2538C18.5589 0.187253 18.8061 0.434506 18.8061 0.739561C18.8061 1.04462 18.5587 1.29187 18.2538 1.29187Z" fill="#CA7C52"/>
<path id="Vector_8" d="M18.2538 19.9068H2.05536C1.7503 19.9068 1.50305 19.6596 1.50305 19.3545C1.50305 19.0495 1.7503 18.8022 2.05536 18.8022H18.2538C18.5589 18.8022 18.8061 19.0495 18.8061 19.3545C18.8061 19.6596 18.5587 19.9068 18.2538 19.9068Z" fill="#CA7C52"/>
</g>
</g>
</g>
</g>
</svg>
