<svg width="139" height="30" viewBox="0 0 139 30" fill="none" xmlns="http://www.w3.org/2000/svg">
<g id="Logo 1" clip-path="url(#clip0_4_3466)">
<path id="Vector" fill-rule="evenodd" clip-rule="evenodd" d="M10.1053 9C8.76316 9 7.42105 9.39474 6.39474 10.0263C5.21053 10.6579 4.3421 11.6053 3.71053 12.6316H3.63158V0H0V29.5263H3.71053V17.3684C3.71053 16.7368 3.78947 16.1842 3.94737 15.6316C4.65789 13.6579 6.47368 12 8.8421 12C12.3158 12 13.5 14.6842 13.5 17.9211V29.4474H17.1316V17.5263C17.1316 10.6579 12.7895 9 10.1053 9Z" fill="white"/>
<path id="Vector_2" d="M23.5264 9.39474H19.8948V29.5263H23.5264V9.39474Z" fill="white"/>
<path id="Vector_3" fill-rule="evenodd" clip-rule="evenodd" d="M90.4736 9.39474L87.6315 19.5C86.9999 21.8684 86.4473 24 86.1315 26.0526H85.9736C85.4999 24 84.9473 21.8684 84.1578 19.5L81.0789 9.47369H77.9999L74.7631 19.7368C74.1315 21.8684 73.421 24.079 72.9473 26.0526H72.7894C72.3947 24 71.8421 21.8684 71.3684 19.6579L68.6842 9.39474H64.9736L71.0526 29.5263H74.3684L77.6052 19.9737C78.3157 17.8421 78.9473 15.7105 79.421 13.3421H79.4999C79.9736 15.7105 80.6052 17.7632 81.3157 19.9737L84.3947 29.6053H87.7105L94.2631 9.47369H90.4736V9.39474Z" fill="white"/>
<path id="Vector_4" fill-rule="evenodd" clip-rule="evenodd" d="M138.553 18.3947C138.553 14.6842 136.816 8.92105 130.184 8.92105C125.053 8.92105 121.658 12.5526 120.868 17.4474H118.105L117.474 20.0526H120.71C120.868 25.8947 124.5 29.4474 130.579 29.4474C133.816 29.4474 136.026 28.7368 137.368 28.1842L136.737 25.5789C135.395 26.2105 133.816 26.6053 131.21 26.6053C127.5 26.6053 124.342 25.0263 124.263 20.1316H138.553V18.3947ZM126 17.5263H124.184C124.5 15 126.079 11.6053 129.789 11.6053C133.895 11.6053 134.921 15.2368 134.842 17.5263H126Z" fill="white"/>
<path id="Vector_5" fill-rule="evenodd" clip-rule="evenodd" d="M36.5527 9C33.2369 9 30.8685 10.8947 29.9211 12.7895H29.8422L29.6053 9.47368H26.5264V29.6053H30.2369V17.4474C30.2369 16.8158 30.3158 16.1842 30.4737 15.7105C31.1053 13.6579 33.0001 11.9211 35.3685 11.9211C38.8422 11.9211 40.0264 14.6053 40.0264 17.8421V29.4474H43.6579V17.5263C43.6579 10.6579 39.3158 9 36.5527 9Z" fill="white"/>
<path id="Vector_6" fill-rule="evenodd" clip-rule="evenodd" d="M60.3947 12H60.3157C59.3684 10.4211 57.3947 9 54.2368 9C49.342 9 45.1578 13.1053 45.1578 19.8158C45.1578 25.8947 48.9473 30.0789 53.842 30.0789C57.1578 30.0789 59.5263 28.3421 60.6315 26.1316H60.7894L60.9473 29.6053H64.0263V0H60.3947V12ZM60.3947 21.0789C60.3947 21.6316 60.3947 22.1053 60.2368 22.6579C59.6052 25.3421 57.3157 27 54.8684 27C50.921 27 48.8684 23.6053 48.8684 19.5789C48.8684 15.1579 51.1578 11.8421 54.9473 11.8421C57.7105 11.8421 59.6842 13.7368 60.2368 16.0263C60.3947 16.5 60.3947 17.1316 60.3947 17.6053V21.0789Z" fill="white"/>
<path id="Vector_7" fill-rule="evenodd" clip-rule="evenodd" d="M105.395 29.5263H109.026V17.2105C109.026 13.1842 107.526 9 101.368 9C98.8421 9 96.3947 9.71053 94.7368 10.7368L95.5263 13.1842C96.9474 12.2368 98.921 11.6842 100.816 11.6842C104.921 11.6053 105.395 14.6842 105.395 16.2632V17.4474C96.7895 17.4474 93.5526 18.7895 93.3158 23.5263C93.1579 26.4474 95.3684 29.5263 99.4737 29.5263C100.658 29.5263 101.842 29.2895 102.789 28.8158L103.026 26.2105C102.316 26.6053 101.447 26.8421 100.5 26.8421C98.6842 26.8421 97.1842 26.2895 97.1842 23.9211C97.1842 19.9737 100.026 20.1316 105.553 20.1316L105.395 29.5263Z" fill="white"/>
<path id="Vector_8" fill-rule="evenodd" clip-rule="evenodd" d="M121.342 12.4737L121.737 9.07895C121.421 9 121.105 9 120.711 9C118.263 9 115.974 10.7368 115.105 13.4211H115.026L114.868 9.39474H111.868V29.5263H115.5V18.7895C115.5 18.2368 115.579 17.6053 115.658 17.0526C116.132 14.2895 118.026 12.3947 120.553 12.3947C120.947 12.4737 120.947 12.3158 121.342 12.4737Z" fill="white"/>
</g>
<defs>
<clipPath id="clip0_4_3466">
<rect width="138.947" height="30" fill="white"/>
</clipPath>
</defs>
</svg>
