<svg width="18" height="18" viewBox="0 0 18 18" fill="none" xmlns="http://www.w3.org/2000/svg">
<g id="4092559_search_magnifier_mobile ui_zoom_icon 2" clip-path="url(#clip0_4_3480)">
<g id="search">
<path id="Vector" d="M17.2615 16.8904L13.315 12.9439H13.2725C14.4889 11.5097 15.1036 9.66068 14.988 7.78364C14.8725 5.90661 14.0356 4.14697 12.6524 2.87282C11.2692 1.59866 9.44696 0.908693 7.56676 0.947242C5.68657 0.98579 3.89411 1.74987 2.56433 3.07965C1.23455 4.40942 0.470471 6.20189 0.431922 8.08208C0.393373 9.96228 1.08334 11.7845 2.3575 13.1677C3.63165 14.5509 5.39129 15.3878 7.26833 15.5034C9.14536 15.6189 10.9944 15.0042 12.4286 13.7879C12.4286 13.7879 12.4286 13.8182 12.4286 13.8304L16.375 17.7768C16.4315 17.8337 16.4986 17.8789 16.5726 17.9097C16.6466 17.9405 16.726 17.9564 16.8061 17.9564C16.8863 17.9564 16.9656 17.9405 17.0396 17.9097C17.1136 17.8789 17.1807 17.8337 17.2372 17.7768C17.2994 17.7217 17.3497 17.6544 17.3849 17.579C17.42 17.5037 17.4393 17.4219 17.4416 17.3388C17.4439 17.2557 17.4291 17.173 17.3981 17.0959C17.3671 17.0188 17.3206 16.9488 17.2615 16.8904ZM7.72325 14.2857C6.52244 14.2857 5.34859 13.9296 4.35015 13.2625C3.35171 12.5954 2.57352 11.6471 2.11398 10.5377C1.65445 9.42831 1.53422 8.20755 1.76848 7.02981C2.00275 5.85207 2.581 4.77024 3.4301 3.92114C4.27921 3.07203 5.36103 2.49379 6.53878 2.25952C7.71652 2.02525 8.93728 2.14549 10.0467 2.60502C11.1561 3.06455 12.1043 3.84274 12.7715 4.84118C13.4386 5.83962 13.7947 7.01347 13.7947 8.21429C13.7947 9.0116 13.6376 9.8011 13.3325 10.5377C13.0274 11.2743 12.5802 11.9436 12.0164 12.5074C11.4526 13.0712 10.7833 13.5184 10.0467 13.8236C9.31007 14.1287 8.52056 14.2857 7.72325 14.2857Z" fill="#9EA9AD"/>
</g>
</g>
<defs>
<clipPath id="clip0_4_3480">
<rect width="17" height="17" fill="white" transform="translate(0.4375 0.928574)"/>
</clipPath>
</defs>
</svg>
