<svg width="25" height="25" viewBox="0 0 25 25" fill="none" xmlns="http://www.w3.org/2000/svg">
<g id="510856_audio_sound_speaker_volume_icon 1">
<g id="Group">
<path id="Vector" d="M16.0124 7.59871L14.6116 8.99951C15.3298 9.71776 15.7738 10.7098 15.7738 11.8056C15.7738 12.9013 15.3298 13.8934 14.6116 14.6116L16.0124 16.0124C17.0902 14.9345 17.7579 13.4464 17.7579 11.8056C17.7579 10.1647 17.0902 8.67659 16.0124 7.59871Z" fill="#A1D119"/>
<path id="Vector_2" d="M18.8174 4.79365L17.4176 6.19345C18.8536 7.62996 19.742 9.61409 19.742 11.8056C19.742 13.997 18.8536 15.9812 17.4176 17.4177L18.8174 18.8175C20.6135 17.0208 21.7261 14.5407 21.7261 11.8056C21.7261 9.07044 20.6135 6.59028 18.8174 4.79365Z" fill="#A1D119"/>
<path id="Vector_3" d="M10.8135 6.17212V17.4251L6.17953 12.7867H4.86108V10.8135H6.18003L10.8135 6.17212ZM12.7976 3.37302H10.8045L5.35711 8.82937H2.87695V14.7708H5.35711L10.8189 20.2381H12.7976V3.37302Z" fill="#A1D119"/>
</g>
</g>
</svg>
